/* XPM */
static char *bb_frame__[] = {
/* columns rows colors chars-per-pixel */
"64 16 4 1",
"  c red",
". c black",
"X c None",
"o c black",
/* pixels */
".......    ........................... .........................",
"...... .... .......................... ........ ................",
"..... ...... ......................... .........................",
"..... ...... .................. ...... .........................",
"..... ...... ...................................................",
"..... . .... ............................ ......................",
"..... ...... ........     ......................................",
"..... ...... ....... ..... .....................................",
"...... .... ....... ....... ..........................    ......",
"....... .. ....... ......... ........................ ...  .....",
"........  ........ ......... ....................... ...... ....",
"........ ......... ......... . ..................... ...... ....",
"........ ......... ......... ....................... ...... ....",
"........ ......... ......... ....................... ...... ....",
"......... ........ ......... ................... ... .... . ....",
"....... . ......... ....... .............. ..... ... ...... ...."
};
