/* XPM */
static char *bb_bang[] = {
/* columns rows colors chars-per-pixel */
"34 33 5 1",
"  c black",
". c green",
"X c red",
"o c yellow",
"O c None",
/* pixels */
"OOOOOOOOOOOOOOOOOOOOOOOOOOOOOOOOOO",
"OOOOOOOOOOOOOOOOOOoOOOOOOOOOOOOOOO",
"OOOOOOOOOOOOOOOOOOoOOOOOOOOOOOOOOO",
"OOOOOOOOOOOOOOOOOooOOOOOOOOOOOOOOO",
"OOOOOOOOOOOoOOOOOoooOOOOOOOOOOOOOO",
"OOOOOOOOOOOooOOOOoooOOOOOOOOOOOOOO",
"OOOOOOOOOOOoooOOooooOOOOOOooOOOOOO",
"OOOOooOOOOOooooOooooOOOOoooOOOOOOO",
"OOOOOooooOOooooooooooOoooooOOOOOOO",
"OOOOOOooooooooooooooooooooOOOOOOOO",
"O        oooooo   ooooooooOOOOOOOO",
"O XXXXXX  ooooo XX oooooo   OOOOOO",
"O X   XXX ooooo XXX oooo XX oooOOO",
"O X o XXX o  oo XXXX o  XXX ooOOOO",
"O X  XXX o XX o XXXXX XXXXX    OOO",
"O XXXX    XXXX  XXXXXXXXXXX XXX OO",
"O XXXXX  XX XXX XX XXXX XX X  XX O",
"O X   XX X o XX XX  X   XX X oXX O",
"O X o XX X o XX XX o o XXX XXXX OO",
"O X  XXX XX XXX XX ooo XX  XXXX OO",
"O XXXXX   XXXX  XX oo XXX  X  XX O",
"O XXXXX oo XX o XX o  XX   X oXX O",
"O XXX  Oooo  oo X oo XXX o XXXX OO",
"O X  OOOooooooo  ooo XXX o XXX OOO",
"O  OOOOoooooooooooooo   OO    OOOO",
"OOOOOOOoooooOooooooOooooOOOOOOOOOO",
"OOOOOOooooOOOOooooOOOoooOOOOOOOOOO",
"OOOOOOoOOOOOOOooooOOOOooOOOOOOOOOO",
"OOOOOOOOOOOOOOoooOOOOOOoOOOOOOOOOO",
"OOOOOOOOOOOOOOOooOOOOOOOOOOOOOOOOO",
"OOOOOOOOOOOOOOOoOOOOOOOOOOOOOOOOOO",
"OOOOOOOOOOOOOOOoOOOOOOOOOOOOOOOOOO",
"OOOOOOOOOOOOOOOOOOOOOOOOOOOOOOOOOO"
};
